<svg version="1.1" id="Layer_1" xmlns="http://www.w3.org/2000/svg" xmlns:xlink="http://www.w3.org/1999/xlink" x="0px" y="0px"
	 width="100%" viewBox="0 0 500 500" enable-background="new 0 0 500 500" xml:space="preserve">
<path fill="#000000" opacity="1.000000" stroke="none" 
	d="
M361.990631,309.994415 
	C361.990631,309.994415 361.927795,309.942993 361.280090,310.220215 
	C361.155884,311.142975 361.031677,312.065735 360.976471,312.988617 
	C360.976471,312.988617 360.938019,312.931335 360.316620,313.144836 
	C359.604858,314.421631 358.893127,315.698425 358.049927,317.686371 
	C357.671265,318.793365 357.292633,319.900360 357.002716,320.982758 
	C357.002716,320.982758 356.977661,320.894104 356.259735,320.988312 
	C355.512756,321.554291 354.698792,322.050873 354.029694,322.697449 
	C349.564545,327.012268 345.600281,332.029114 340.582825,335.548340 
	C331.656647,341.809265 321.262482,344.587311 310.370819,344.786316 
	C296.740448,345.035370 283.101776,345.043701 269.469330,344.902954 
	C257.410645,344.778503 245.334641,343.789703 233.310394,344.275238 
	C229.208893,344.440857 229.006027,343.498718 229.025848,340.458130 
	C229.077896,332.475159 229.123459,324.490448 229.002304,316.509003 
	C228.958450,313.619720 228.433701,310.737732 228.590012,307.352661 
	C230.117691,306.746552 231.645981,306.141968 233.172943,305.534088 
	C243.861450,301.278687 254.549667,297.022552 265.949799,292.769836 
	C275.746674,288.720215 286.250000,286.238770 295.256714,279.919800 
	C294.038696,278.752075 292.953552,278.196777 291.803040,277.961914 
	C284.208008,276.411377 276.522461,275.233582 269.014893,273.344177 
	C260.743378,271.262512 253.500885,272.793579 246.222153,278.236420 
	C226.577560,286.141235 206.932968,294.046051 186.863937,301.338959 
	C180.856049,303.876160 174.848160,306.413391 168.207047,309.250946 
	C160.689758,312.197113 153.137344,315.057556 145.666611,318.117401 
	C140.015671,320.431885 134.359024,322.598145 133.549774,330.197418 
	C133.178696,333.682007 131.056808,336.952332 130.011093,340.405304 
	C129.532776,341.984741 129.736404,343.770660 129.630768,345.462921 
	C131.190292,345.306000 132.885223,345.492126 134.288116,344.938385 
	C146.575653,340.088257 158.811020,335.105988 171.085709,331.070129 
	C170.795776,341.654388 170.505859,352.238678 169.932800,363.508911 
	C166.810272,371.619598 160.623505,374.886719 152.235092,375.131042 
	C151.127258,375.163361 149.542923,377.025024 149.136307,378.336243 
	C148.628876,379.972565 149.113632,381.916534 149.260330,384.643250 
	C149.908005,384.759766 150.555649,384.978058 151.203369,384.978333 
	C208.322250,385.002441 265.441132,385.015961 322.559967,384.976196 
	C323.749756,384.975372 324.939117,384.345215 327.048737,384.017059 
	C333.451355,384.348755 339.869324,384.505951 346.251556,385.069000 
	C351.103058,385.497009 354.012970,384.011230 355.137482,378.951843 
	C356.923492,370.916504 359.101257,362.968231 361.773499,354.647430 
	C363.453888,348.757965 365.134277,342.868530 366.979828,336.511566 
	C366.979828,336.511566 367.082001,336.026367 367.013947,336.006958 
	C367.013947,336.006958 367.054138,336.065216 367.775726,335.746155 
	C369.224457,329.843170 370.673187,323.940155 372.815430,317.660706 
	C373.216827,315.103424 374.039398,312.515106 373.854279,310.001007 
	C373.750946,308.597382 371.702789,306.054382 370.998535,306.205414 
	C368.322235,306.779236 364.707764,303.573853 362.989685,307.981262 
	C362.989685,307.981262 362.915741,307.938232 362.300934,308.127319 
	C362.171417,308.742401 362.041931,309.357513 361.990631,309.994415 
M171.058487,153.942444 
	C171.092819,156.636932 171.127136,159.331421 171.000076,162.947601 
	C171.050949,173.954361 171.101837,184.961121 171.038422,196.904144 
	C171.079391,203.275650 171.120346,209.647171 170.996689,216.940796 
	C171.053177,233.959961 171.109680,250.979126 171.029633,268.927338 
	C170.709381,275.944977 170.335358,282.961182 170.153168,289.982422 
	C170.135223,290.674347 171.293030,291.396759 172.211945,292.768463 
	C173.501404,292.547974 174.790848,292.327484 176.857849,292.025970 
	C185.828873,288.586945 194.885971,285.352539 203.737061,281.628510 
	C208.666611,279.554413 213.253174,276.665161 218.604370,273.998901 
	C218.802887,273.933594 219.001404,273.868317 219.914551,273.891907 
	C228.242004,272.435425 229.985840,267.199402 229.156616,259.472168 
	C228.225922,250.799240 228.125137,242.013824 228.087112,233.275513 
	C228.053436,225.540756 228.601486,217.803482 229.028961,209.124191 
	C228.983627,199.729706 228.938293,190.335205 229.029724,180.022278 
	C228.692001,170.600082 228.103439,161.178391 228.084854,151.755569 
	C228.064972,141.681015 228.696472,131.606384 228.784592,121.529526 
	C228.806259,119.051506 227.770630,116.920471 224.366898,116.932388 
	C198.548019,117.022797 172.728455,116.944061 146.910294,117.107346 
	C145.647781,117.115326 143.667725,118.652748 143.267014,119.883430 
	C141.599487,125.004616 144.234680,127.055946 152.516632,126.991203 
	C160.400452,128.626434 167.097534,131.873291 170.055405,140.884567 
	C170.429688,144.943634 170.803970,149.002716 171.058487,153.942444 
z"/>
<path fill="#EC6923" opacity="1.000000" stroke="none" 
	d="
M361.113281,354.983124 
	C359.101257,362.968231 356.923492,370.916504 355.137482,378.951843 
	C354.012970,384.011230 351.103058,385.497009 346.251556,385.069000 
	C339.869324,384.505951 333.451355,384.348755 326.111938,383.978027 
	C323.348297,383.898285 321.521484,383.823059 319.694611,383.821899 
	C262.853058,383.786041 206.011520,383.757446 149.169983,383.727692 
	C149.113632,381.916534 148.628876,379.972565 149.136307,378.336243 
	C149.542923,377.025024 151.127258,375.163361 152.235092,375.131042 
	C160.623505,374.886719 166.810272,371.619598 170.388474,363.027832 
	C171.248398,361.512878 171.902618,360.505585 172.015732,359.440826 
	C172.672852,353.255157 173.202744,347.056000 174.138855,340.814880 
	C176.622192,339.575439 178.643143,338.135468 180.881470,337.237000 
	C187.003693,334.779694 193.196533,332.492706 199.399979,330.244659 
	C208.202805,327.054657 217.040115,323.959808 225.973145,321.293579 
	C226.143539,327.910126 226.225861,334.057281 226.257324,340.204742 
	C226.290665,346.718933 227.073013,347.571808 233.811203,347.599121 
	C247.605042,347.655090 261.400482,347.756622 275.192841,347.611511 
	C288.307159,347.473572 301.428009,347.260529 314.527954,346.676392 
	C325.009766,346.209015 335.100555,343.523102 343.132874,336.545837 
	C348.346100,332.017365 352.402802,326.157471 356.977661,320.894104 
	C356.977661,320.894104 357.002716,320.982758 357.271942,320.885223 
	C358.365417,319.526825 359.189697,318.265961 360.187439,316.681519 
	C360.553314,315.215790 360.745667,314.073547 360.938019,312.931335 
	C360.938019,312.931335 360.976471,312.988617 361.343994,312.911865 
	C361.783630,311.871063 361.855713,310.907043 361.927795,309.942993 
	C361.927795,309.942993 361.990631,309.994415 362.355896,309.987091 
	C362.786041,309.299255 362.850891,308.618744 362.915771,307.938232 
	C362.915741,307.938232 362.989685,307.981262 363.298584,308.177124 
	C366.105499,308.530701 368.816833,308.190552 370.984436,309.119354 
	C371.731110,309.439270 371.168671,312.924286 371.112305,314.960907 
	C371.084930,315.949310 370.845398,316.931854 370.486572,318.193115 
	C369.198822,324.334503 368.126495,330.199860 367.054138,336.065216 
	C367.054138,336.065216 367.013947,336.006958 366.744324,336.018188 
	C366.202484,336.325104 365.930267,336.620728 365.402191,337.155090 
	C363.801941,343.256897 362.457611,349.120026 361.113281,354.983124 
z"/>
<path fill="#EE6A22" opacity="1.000000" stroke="none" 
	d="
M219.199905,273.803070 
	C219.001404,273.868317 218.802887,273.933594 218.061371,273.882935 
	C210.008957,276.692810 202.509796,279.645355 194.986938,282.536163 
	C189.024597,284.827301 183.033157,287.042786 177.039352,288.794495 
	C177.015427,246.568954 177.039215,204.840714 176.950165,163.112732 
	C176.940826,158.736496 176.346603,154.351898 175.820358,149.995743 
	C175.731262,149.258118 174.605255,148.645782 173.800232,147.654099 
	C172.493057,144.891342 171.343948,142.450058 170.194839,140.008759 
	C167.097534,131.873291 160.400452,128.626434 152.002502,126.582840 
	C151.087784,125.904556 150.702591,125.429863 150.284073,125.398415 
	C147.825363,125.213638 144.970779,124.873482 146.079880,121.640297 
	C146.550034,120.269737 149.460678,118.958725 151.272720,118.944214 
	C173.909439,118.762917 196.548111,118.822823 219.186279,118.825714 
	C225.995575,118.826584 226.055206,118.893875 226.054901,125.878738 
	C226.053009,170.156387 225.995636,214.434174 226.114044,258.711487 
	C226.129944,264.652954 226.632095,270.403351 219.562286,272.904938 
	C219.360779,272.976227 219.317139,273.493652 219.199905,273.803070 
z"/>
<path fill="#2B1F60" opacity="1.000000" stroke="none" 
	d="
M171.061874,330.162903 
	C158.811020,335.105988 146.575653,340.088257 134.288116,344.938385 
	C132.885223,345.492126 131.190292,345.306000 129.630768,345.462952 
	C129.736404,343.770660 129.532776,341.984741 130.011093,340.405304 
	C131.056808,336.952332 133.178696,333.682007 133.549774,330.197418 
	C134.359024,322.598145 140.015671,320.431885 145.666611,318.117401 
	C153.137344,315.057556 160.689758,312.197113 168.798187,309.272064 
	C175.355698,306.845764 181.322037,304.398315 187.288376,301.950867 
	C206.932968,294.046051 226.577560,286.141235 246.827408,278.245758 
	C249.309128,277.701019 251.164001,277.053955 253.066544,276.612213 
	C257.022614,275.693634 261.081635,273.932159 264.956909,274.248688 
	C271.021515,274.744049 276.966614,276.685089 282.966797,277.993378 
	C285.765411,278.603607 288.574402,279.166168 291.378693,279.750336 
	C284.265839,283.733002 277.039124,286.514191 269.902740,289.510559 
	C268.193420,290.228210 266.784851,291.662140 265.237976,292.766693 
	C254.549667,297.022552 243.861450,301.278687 233.172943,305.534088 
	C231.645981,306.141968 230.117691,306.746552 227.971039,307.761230 
	C227.151535,308.364014 226.951004,308.558228 226.427826,308.595825 
	C224.663940,308.772797 223.150681,308.925964 221.792480,309.467773 
	C207.804031,315.047974 193.825760,320.654541 179.883347,326.348511 
	C177.211899,327.439545 174.709213,328.943756 171.864410,330.205994 
	C171.420746,330.157410 171.241302,330.160156 171.061874,330.162903 
z"/>
<path fill="#F1A479" opacity="1.000000" stroke="none" 
	d="
M219.557220,273.847473 
	C219.317139,273.493652 219.360779,272.976227 219.562286,272.904938 
	C226.632095,270.403351 226.129944,264.652954 226.114044,258.711487 
	C225.995636,214.434174 226.053009,170.156387 226.054901,125.878738 
	C226.055206,118.893875 225.995575,118.826584 219.186279,118.825714 
	C196.548111,118.822823 173.909439,118.762917 151.272720,118.944214 
	C149.460678,118.958725 146.550034,120.269737 146.079880,121.640297 
	C144.970779,124.873482 147.825363,125.213638 150.284073,125.398415 
	C150.702591,125.429863 151.087784,125.904556 151.607086,126.488426 
	C144.234680,127.055946 141.599487,125.004616 143.267014,119.883430 
	C143.667725,118.652748 145.647781,117.115326 146.910294,117.107346 
	C172.728455,116.944061 198.548019,117.022797 224.366898,116.932388 
	C227.770630,116.920471 228.806259,119.051506 228.784592,121.529526 
	C228.696472,131.606384 228.064972,141.681015 228.084854,151.755569 
	C228.103439,161.178391 228.692001,170.600082 228.712219,180.822479 
	C228.235947,186.720795 227.898895,191.821487 227.972626,196.916229 
	C228.036118,201.303436 228.567963,205.683884 228.892731,210.067322 
	C228.601486,217.803482 228.053436,225.540756 228.087112,233.275513 
	C228.125137,242.013824 228.225922,250.799240 229.156616,259.472168 
	C229.985840,267.199402 228.242004,272.435425 219.557220,273.847473 
z"/>
<path fill="#F2B595" opacity="1.000000" stroke="none" 
	d="
M226.750458,308.752411 
	C226.951004,308.558228 227.151535,308.364014 227.740234,308.011108 
	C228.433701,310.737732 228.958450,313.619720 229.002304,316.509003 
	C229.123459,324.490448 229.077896,332.475159 229.025848,340.458130 
	C229.006027,343.498718 229.208893,344.440857 233.310394,344.275238 
	C245.334641,343.789703 257.410645,344.778503 269.469330,344.902954 
	C283.101776,345.043701 296.740448,345.035370 310.370819,344.786316 
	C321.262482,344.587311 331.656647,341.809265 340.582825,335.548340 
	C345.600281,332.029114 349.564545,327.012268 354.029694,322.697449 
	C354.698792,322.050873 355.512756,321.554291 356.618713,320.941223 
	C352.402802,326.157471 348.346100,332.017365 343.132874,336.545837 
	C335.100555,343.523102 325.009766,346.209015 314.527954,346.676392 
	C301.428009,347.260529 288.307159,347.473572 275.192841,347.611511 
	C261.400482,347.756622 247.605042,347.655090 233.811203,347.599121 
	C227.073013,347.571808 226.290665,346.718933 226.257324,340.204742 
	C226.225861,334.057281 226.143539,327.910126 226.081497,320.867340 
	C226.303085,316.232056 226.526764,312.492218 226.750458,308.752411 
z"/>
<path fill="#F4AD89" opacity="1.000000" stroke="none" 
	d="
M149.215149,384.185486 
	C206.011520,383.757446 262.853058,383.786041 319.694611,383.821899 
	C321.521484,383.823059 323.348297,383.898285 325.651917,383.973816 
	C324.939117,384.345215 323.749756,384.975372 322.559967,384.976196 
	C265.441132,385.015961 208.322250,385.002441 151.203369,384.978333 
	C150.555649,384.978058 149.908005,384.759766 149.215149,384.185486 
z"/>
<path fill="#8881A1" opacity="1.000000" stroke="none" 
	d="
M265.593872,292.768250 
	C266.784851,291.662140 268.193420,290.228210 269.902740,289.510559 
	C277.039124,286.514191 284.265839,283.733002 291.378693,279.750336 
	C288.574402,279.166168 285.765411,278.603607 282.966797,277.993378 
	C276.966614,276.685089 271.021515,274.744049 264.956909,274.248688 
	C261.081635,273.932159 257.022614,275.693634 253.066544,276.612213 
	C251.164001,277.053955 249.309128,277.701019 247.154541,278.105713 
	C253.500885,272.793579 260.743378,271.262512 269.014893,273.344177 
	C276.522461,275.233582 284.208008,276.411377 291.803040,277.961914 
	C292.953552,278.196777 294.038696,278.752075 295.256714,279.919800 
	C286.250000,286.238770 275.746674,288.720215 265.593872,292.768250 
z"/>
<path fill="#F4AD89" opacity="1.000000" stroke="none" 
	d="
M177.054626,289.291870 
	C183.033157,287.042786 189.024597,284.827301 194.986938,282.536163 
	C202.509796,279.645355 210.008957,276.692810 217.756332,273.955109 
	C213.253174,276.665161 208.666611,279.554413 203.737061,281.628510 
	C194.885971,285.352539 185.828873,288.586945 176.435089,292.039612 
	C176.012344,292.053253 175.972641,291.976257 175.979248,291.663422 
	C176.150375,290.759247 176.314880,290.167877 176.636993,289.533264 
	C176.794601,289.489990 177.054626,289.291840 177.054626,289.291870 
z"/>
<path fill="#F4AD89" opacity="1.000000" stroke="none" 
	d="
M171.166168,267.998291 
	C171.109680,250.979126 171.053177,233.959961 171.430130,216.486694 
	C172.097687,216.035172 172.331787,216.037766 172.546371,216.494385 
	C172.624313,220.086884 172.809891,223.225494 172.804062,226.363739 
	C172.778275,240.250351 172.697464,254.136856 172.391449,268.025238 
	C171.819611,268.017181 171.492889,268.007568 171.166168,267.998291 
z"/>
<path fill="#F1A479" opacity="1.000000" stroke="none" 
	d="
M171.073792,330.616516 
	C171.241302,330.160156 171.420746,330.157410 171.978577,330.534943 
	C172.829849,334.230621 173.302750,337.545990 173.775650,340.861389 
	C173.202744,347.056000 172.672852,353.255157 172.015732,359.440826 
	C171.902618,360.505585 171.248398,361.512878 170.530029,362.684814 
	C170.505859,352.238678 170.795776,341.654388 171.073792,330.616516 
z"/>
<path fill="#F2B595" opacity="1.000000" stroke="none" 
	d="
M171.097900,268.462830 
	C171.492889,268.007568 171.819611,268.017181 172.495819,268.483490 
	C172.945602,275.607086 173.045898,282.274292 172.986023,289.213104 
	C172.606903,290.273895 172.387970,291.063019 172.102600,291.914917 
	C172.036179,291.977661 171.905106,292.105042 171.905106,292.105042 
	C171.293030,291.396759 170.135223,290.674347 170.153168,289.982422 
	C170.335358,282.961182 170.709381,275.944977 171.097900,268.462830 
z"/>
<path fill="#F2B595" opacity="1.000000" stroke="none" 
	d="
M171.152710,195.967880 
	C171.101837,184.961121 171.050949,173.954361 171.410095,162.481674 
	C172.039474,162.007095 172.258865,161.998459 172.480164,162.398407 
	C172.581543,169.549393 172.681015,176.291779 172.593719,183.278351 
	C172.532928,184.670685 172.658890,185.818832 172.836761,187.374786 
	C172.771957,190.528107 172.655258,193.273666 172.192261,196.002258 
	C171.614868,195.979492 171.383789,195.973694 171.152710,195.967880 
z"/>
<path fill="#F1A479" opacity="1.000000" stroke="none" 
	d="
M171.095566,196.436005 
	C171.383789,195.973694 171.614868,195.979492 172.351929,196.366302 
	C172.760574,203.178299 172.663239,209.609329 172.565903,216.040344 
	C172.331787,216.037766 172.097687,216.035172 171.512436,216.025635 
	C171.120346,209.647171 171.079391,203.275650 171.095566,196.436005 
z"/>
<path fill="#F4AD89" opacity="1.000000" stroke="none" 
	d="
M367.414948,335.905701 
	C368.126495,330.199860 369.198822,324.334503 370.842468,318.223083 
	C371.649780,317.997040 371.885864,318.017120 372.121918,318.037170 
	C370.673187,323.940155 369.224457,329.843170 367.414948,335.905701 
z"/>
<path fill="#8881A1" opacity="1.000000" stroke="none" 
	d="
M187.076157,301.644897 
	C181.322037,304.398315 175.355698,306.845764 169.114807,309.121887 
	C174.848160,306.413391 180.856049,303.876160 187.076157,301.644897 
z"/>
<path fill="#F1A479" opacity="1.000000" stroke="none" 
	d="
M361.443390,354.815277 
	C362.457611,349.120026 363.801941,343.256897 365.692688,337.171112 
	C366.430908,336.958649 366.622803,336.968842 366.814667,336.979065 
	C365.134277,342.868530 363.453888,348.757965 361.443390,354.815277 
z"/>
<path fill="#F2B595" opacity="1.000000" stroke="none" 
	d="
M372.468689,317.848938 
	C371.885864,318.017120 371.649780,317.997040 371.057831,317.947021 
	C370.845398,316.931854 371.084930,315.949310 371.112305,314.960907 
	C371.168671,312.924286 371.731110,309.439270 370.984436,309.119354 
	C368.816833,308.190552 366.105499,308.530701 363.268036,308.146912 
	C364.707764,303.573853 368.322235,306.779236 370.998535,306.205414 
	C371.702789,306.054382 373.750946,308.597382 373.854279,310.001007 
	C374.039398,312.515106 373.216827,315.103424 372.468689,317.848938 
z"/>
<path fill="#EB7C43" opacity="1.000000" stroke="none" 
	d="
M170.125122,140.446655 
	C171.343948,142.450058 172.493057,144.891342 173.799011,148.038559 
	C173.631088,150.165405 173.306290,151.586319 172.681030,153.018051 
	C171.979797,153.039825 171.579025,153.050797 171.178253,153.061783 
	C170.803970,149.002716 170.429688,144.943634 170.125122,140.446655 
z"/>
<path fill="#F2B595" opacity="1.000000" stroke="none" 
	d="
M228.960846,209.595764 
	C228.567963,205.683884 228.036118,201.303436 227.972626,196.916229 
	C227.898895,191.821487 228.235947,186.720795 228.643829,181.281708 
	C228.938293,190.335205 228.983627,199.729706 228.960846,209.595764 
z"/>
<path fill="#F1A479" opacity="1.000000" stroke="none" 
	d="
M171.118378,153.502106 
	C171.579025,153.050797 171.979797,153.039825 172.690857,153.451401 
	C172.826859,156.579239 172.652557,159.284515 172.478256,161.989807 
	C172.258865,161.998459 172.039474,162.007095 171.490784,162.020828 
	C171.127136,159.331421 171.092819,156.636932 171.118378,153.502106 
z"/>
<path fill="#F4AD89" opacity="1.000000" stroke="none" 
	d="
M360.013977,317.005066 
	C359.189697,318.265961 358.365417,319.526825 357.227570,320.897522 
	C357.292633,319.900360 357.671265,318.793365 358.421082,317.334503 
	C359.199463,316.990112 359.606720,316.997589 360.013977,317.005066 
z"/>
<path fill="#F2B595" opacity="1.000000" stroke="none" 
	d="
M360.187439,316.681519 
	C359.606720,316.997589 359.199463,316.990112 358.486816,316.978943 
	C358.893127,315.698425 359.604858,314.421631 360.627319,313.038086 
	C360.745667,314.073547 360.553314,315.215790 360.187439,316.681519 
z"/>
<path fill="#F2B595" opacity="1.000000" stroke="none" 
	d="
M176.046326,292.080139 
	C174.790848,292.327484 173.501404,292.547974 172.058533,292.436768 
	C171.905106,292.105042 172.036179,291.977661 172.471756,291.863098 
	C173.929108,291.824432 174.950867,291.900330 175.972641,291.976257 
	C175.972641,291.976257 176.012344,292.053253 176.046326,292.080139 
z"/>
<path fill="#F2B595" opacity="1.000000" stroke="none" 
	d="
M361.603943,310.081604 
	C361.855713,310.907043 361.783630,311.871063 361.309509,312.911804 
	C361.031677,312.065735 361.155884,311.142975 361.603943,310.081604 
z"/>
<path fill="#F2B595" opacity="1.000000" stroke="none" 
	d="
M362.608337,308.032776 
	C362.850891,308.618744 362.786041,309.299255 362.316803,309.976196 
	C362.041931,309.357513 362.171417,308.742401 362.608337,308.032776 
z"/>
<path fill="#F4AD89" opacity="1.000000" stroke="none" 
	d="
M366.897247,336.745300 
	C366.622803,336.968842 366.430908,336.958649 365.948547,336.932404 
	C365.930267,336.620728 366.202484,336.325104 366.778320,336.027893 
	C367.082001,336.026367 366.979828,336.511566 366.897247,336.745300 
z"/>
<path fill="#B84228" opacity="1.000000" stroke="none" 
	d="
M174.138855,340.814880 
	C173.302750,337.545990 172.829849,334.230621 172.242798,330.586273 
	C174.709213,328.943756 177.211899,327.439545 179.883347,326.348511 
	C193.825760,320.654541 207.804031,315.047974 221.792480,309.467773 
	C223.150681,308.925964 224.663940,308.772797 226.427826,308.595825 
	C226.526764,312.492218 226.303085,316.232056 225.971039,320.398071 
	C217.040115,323.959808 208.202805,327.054657 199.399979,330.244659 
	C193.196533,332.492706 187.003693,334.779694 180.881470,337.237000 
	C178.643143,338.135468 176.622192,339.575439 174.138855,340.814880 
z"/>
<path fill="#EB631A" opacity="1.000000" stroke="none" 
	d="
M172.480164,162.398407 
	C172.652557,159.284515 172.826859,156.579239 172.991333,153.440598 
	C173.306290,151.586319 173.631088,150.165405 173.957092,148.360016 
	C174.605255,148.645782 175.731262,149.258118 175.820358,149.995743 
	C176.346603,154.351898 176.940826,158.736496 176.950165,163.112732 
	C177.039215,204.840714 177.015427,246.568954 177.039337,288.794495 
	C177.054626,289.291840 176.794601,289.489990 176.233917,289.364166 
	C174.830887,289.139374 173.988541,289.040405 173.146194,288.941467 
	C173.045898,282.274292 172.945602,275.607086 172.740936,268.481659 
	C172.697464,254.136856 172.778275,240.250351 172.804062,226.363739 
	C172.809891,223.225494 172.624313,220.086884 172.546371,216.494385 
	C172.663239,209.609329 172.760574,203.178299 172.698227,196.383240 
	C172.655258,193.273666 172.771957,190.528107 172.940750,186.989304 
	C172.922058,185.142090 172.851273,184.088120 172.780487,183.034164 
	C172.681015,176.291779 172.581543,169.549393 172.480164,162.398407 
z"/>
<path fill="#EB7C43" opacity="1.000000" stroke="none" 
	d="
M172.986023,289.213104 
	C173.988541,289.040405 174.830887,289.139374 176.076294,289.407440 
	C176.314880,290.167877 176.150375,290.759247 175.979248,291.663422 
	C174.950867,291.900330 173.929108,291.824432 172.538177,291.800354 
	C172.387970,291.063019 172.606903,290.273895 172.986023,289.213104 
z"/>
<path fill="#F1A479" opacity="1.000000" stroke="none" 
	d="
M172.593735,183.278351 
	C172.851273,184.088120 172.922058,185.142090 172.888855,186.581512 
	C172.658890,185.818832 172.532928,184.670685 172.593735,183.278351 
z"/>
</svg>