<svg version="1.1" id="Layer_1" xmlns="http://www.w3.org/2000/svg" xmlns:xlink="http://www.w3.org/1999/xlink" x="0px" y="0px"
	 width="100%" viewBox="0 0 192 192" enable-background="new 0 0 192 192" xml:space="preserve">
<path fill="#FFFEFE" opacity="1.000000" stroke="none" 
	d="
M90.000000,193.000000 
	C60.000000,193.000000 30.500004,193.000000 1.000004,193.000000 
	C1.000003,129.000000 1.000003,65.000008 1.000001,1.000013 
	C64.999992,1.000008 128.999985,1.000008 192.999969,1.000004 
	C192.999985,64.999985 192.999985,128.999969 193.000000,192.999969 
	C158.833328,193.000000 124.666664,193.000000 90.000000,193.000000 
M66.612839,128.659073 
	C66.696327,129.429901 66.779816,130.200745 66.545425,131.687119 
	C66.453346,133.515015 66.383926,135.344376 66.264420,137.170486 
	C66.023849,140.846588 64.548866,143.446396 60.625809,144.402939 
	C59.520718,144.672394 58.688335,146.060333 57.730881,146.935272 
	C58.964005,147.420715 60.195694,148.325363 61.430462,148.329590 
	C85.236504,148.411133 109.043106,148.341293 132.848984,148.444992 
	C135.714828,148.457458 136.992279,147.531662 137.637039,144.750534 
	C139.328049,137.456451 141.360565,130.241714 143.067734,122.951027 
	C143.379242,121.620674 142.796448,120.080925 142.626495,118.637840 
	C141.463501,119.526405 139.894455,120.175919 139.206650,121.344231 
	C135.943985,126.886177 131.747131,132.039734 125.254875,132.429962 
	C113.067841,133.162506 100.805420,132.640991 88.302368,132.640991 
	C88.116196,129.773224 87.924858,126.825752 87.958282,123.110504 
	C87.959015,121.770248 87.959740,120.430000 88.608490,118.713295 
	C96.805588,115.342041 105.002686,111.970787 114.352158,108.125595 
	C106.699043,106.210617 100.774887,104.471611 93.928581,107.643875 
	C82.320244,113.022652 70.195305,117.285133 58.295494,122.036819 
	C52.379997,124.398918 50.825592,126.774818 50.705364,133.437531 
	C56.005478,131.586166 61.317921,129.730499 66.612839,128.659073 
M87.494019,46.198330 
	C77.690674,46.047379 67.887482,45.863430 58.083630,45.815815 
	C57.391167,45.812447 56.693821,46.813755 55.998745,47.347893 
	C56.584816,48.012638 57.115040,49.193264 57.765442,49.263668 
	C65.746651,50.127644 66.407364,55.782295 66.400085,62.022160 
	C66.382385,77.187279 66.419212,92.352493 66.457420,107.517601 
	C66.461792,109.250771 66.614609,110.983566 66.739380,113.557999 
	C74.159462,110.177284 80.759232,107.170311 87.790565,103.384979 
	C87.763336,84.599411 87.736107,65.813835 87.494019,46.198330 
z"/>
<path fill="#ED6B24" opacity="1.000000" stroke="none" 
	d="
M87.733513,123.878281 
	C87.924858,126.825752 88.116196,129.773224 88.302368,132.640991 
	C100.805420,132.640991 113.067841,133.162506 125.254875,132.429962 
	C131.747131,132.039734 135.943985,126.886177 139.206650,121.344231 
	C139.894455,120.175919 141.463501,119.526405 142.626495,118.637833 
	C142.796448,120.080925 143.379242,121.620674 143.067734,122.951027 
	C141.360565,130.241714 139.328049,137.456451 137.637039,144.750534 
	C136.992279,147.531662 135.714828,148.457458 132.848984,148.444992 
	C109.043106,148.341293 85.236504,148.411133 61.430462,148.329590 
	C60.195694,148.325363 58.964005,147.420715 57.730877,146.935272 
	C58.688335,146.060333 59.520718,144.672394 60.625809,144.402939 
	C64.548866,143.446396 66.023849,140.846588 66.264420,137.170486 
	C66.383926,135.344376 66.453346,133.515015 67.088074,131.298218 
	C74.331657,128.565659 81.032585,126.221970 87.733513,123.878281 
z"/>
<path fill="#EE6B24" opacity="1.000000" stroke="none" 
	d="
M87.358994,104.163345 
	C80.759232,107.170311 74.159462,110.177284 66.739380,113.557999 
	C66.614609,110.983566 66.461792,109.250771 66.457420,107.517601 
	C66.419212,92.352493 66.382385,77.187279 66.400085,62.022160 
	C66.407364,55.782295 65.746651,50.127644 57.765442,49.263668 
	C57.115040,49.193264 56.584816,48.012638 55.998745,47.347893 
	C56.693821,46.813755 57.391167,45.812447 58.083630,45.815815 
	C67.887482,45.863430 77.690674,46.047379 87.232552,46.732918 
	C86.647331,48.309620 86.045181,49.350739 86.041443,50.394001 
	C85.981880,66.990631 85.967896,83.587700 86.057327,100.184052 
	C86.064484,101.512787 86.905479,102.837013 87.358994,104.163345 
z"/>
<path fill="#322666" opacity="1.000000" stroke="none" 
	d="
M66.630363,127.874832 
	C61.317921,129.730499 56.005478,131.586166 50.705364,133.437531 
	C50.825592,126.774818 52.379997,124.398918 58.295494,122.036819 
	C70.195305,117.285133 82.320244,113.022652 93.928581,107.643875 
	C100.774887,104.471611 106.699043,106.210617 114.352158,108.125595 
	C105.002686,111.970787 96.805588,115.342041 87.918884,118.923859 
	C80.362968,122.047905 73.496666,124.961372 66.630363,127.874832 
z"/>
<path fill="#ED6215" opacity="1.000000" stroke="none" 
	d="
M87.574783,103.774155 
	C86.905479,102.837013 86.064484,101.512787 86.057327,100.184052 
	C85.967896,83.587700 85.981880,66.990631 86.041443,50.394001 
	C86.045181,49.350739 86.647331,48.309620 87.339981,47.147884 
	C87.736107,65.813835 87.763336,84.599411 87.574783,103.774155 
z"/>
<path fill="#BA4429" opacity="1.000000" stroke="none" 
	d="
M66.621597,128.266953 
	C73.496666,124.961372 80.362968,122.047905 87.594864,119.112091 
	C87.959740,120.430000 87.959015,121.770248 87.845901,123.494400 
	C81.032585,126.221970 74.331657,128.565659 67.247009,130.940460 
	C66.779816,130.200745 66.696327,129.429901 66.621597,128.266953 
z"/>
</svg>